<svg width="22" height="22" viewBox="0 0 22 22" fill="none" xmlns="http://www.w3.org/2000/svg">
<path fill-rule="evenodd" clip-rule="evenodd" d="M0 10.75C0 16.6871 4.81294 21.5 10.75 21.5C16.6871 21.5 21.5 16.6871 21.5 10.75C21.5 4.81294 16.6871 0 10.75 0C4.81294 0 0 4.81294 0 10.75ZM10.75 5.75C11.3023 5.75 11.75 6.19772 11.75 6.75V9.75H14.75C15.3023 9.75 15.75 10.1977 15.75 10.75C15.75 11.3023 15.3023 11.75 14.75 11.75H11.75V14.75C11.75 15.3023 11.3023 15.75 10.75 15.75C10.1977 15.75 9.75 15.3023 9.75 14.75V11.75H6.75C6.19772 11.75 5.75 11.3023 5.75 10.75C5.75 10.1977 6.19772 9.75 6.75 9.75H9.75V6.75C9.75 6.19772 10.1977 5.75 10.75 5.75Z" fill="#2F2F2F"/>
</svg>
